<?xml version="1.0" standalone="no"?>
<!DOCTYPE svg PUBLIC "-//W3C//DTD SVG 20010904//EN"
 "http://www.w3.org/TR/2001/REC-SVG-20010904/DTD/svg10.dtd">
<svg version="1.0" xmlns="http://www.w3.org/2000/svg"
 width="1076.000000pt" height="1076.000000pt" viewBox="0 0 1076.000000 1076.000000"
 preserveAspectRatio="xMidYMid meet">
<metadata>
Created by potrace 1.14, written by Peter Selinger 2001-2017
</metadata>
<g transform="translate(0.000000,1076.000000) scale(0.100000,-0.100000)"
fill="#000000" stroke="none">
<path d="M9614 8856 c17 -14 16 -15 -13 -14 -19 1 -28 5 -24 12 5 8 3 8 -8 0
-8 -5 -26 -10 -41 -9 -21 1 -25 -2 -16 -12 18 -22 0 -15 -21 9 l-20 21 4 -21
c3 -20 2 -21 -18 -10 -12 6 -22 12 -22 12 0 1 -15 -10 -34 -24 -19 -13 -31
-19 -27 -12 4 7 2 12 -3 12 -6 0 -11 -5 -11 -12 0 -7 -5 -5 -12 4 -13 17 -61
19 -75 4 -4 -5 -2 -6 5 -2 6 4 12 3 12 -3 0 -10 -52 -8 -85 4 -14 5 -16 4 -7
-3 11 -7 8 -10 -12 -14 -19 -4 -26 -1 -26 11 -1 14 -2 14 -10 -1 -6 -10 -18
-14 -30 -11 -11 3 -28 -1 -37 -8 -15 -13 -15 -12 -4 9 6 12 8 22 2 22 -10 0
-25 -30 -22 -43 1 -5 -3 -6 -8 -2 -6 3 -7 13 -4 21 5 13 2 14 -13 7 -10 -6
-26 -8 -34 -6 -13 4 -13 3 0 -6 8 -5 18 -7 22 -5 4 3 8 1 8 -4 0 -5 -14 -9
-30 -8 -20 1 -29 5 -25 14 5 13 -5 15 -29 6 -9 -3 -13 -10 -10 -15 3 -5 -7 -5
-21 1 -20 8 -27 7 -31 -5 -4 -8 -10 -15 -16 -15 -5 0 -6 6 -2 13 5 7 0 6 -11
-3 -10 -8 -16 -10 -13 -5 4 6 -2 12 -13 12 -10 1 -19 -3 -19 -10 0 -8 -3 -8
-11 0 -15 15 -39 5 -39 -16 0 -10 -3 -12 -8 -5 -10 14 -42 26 -42 15 0 -5 5
-11 11 -13 7 -2 -9 -4 -35 -4 -26 -1 -42 3 -35 7 7 4 19 5 28 2 13 -4 13 -3 2
5 -7 5 -21 8 -30 7 -9 -2 -19 -4 -23 -4 -4 -1 -5 -8 -2 -16 5 -12 2 -14 -17
-7 -13 5 -32 8 -42 6 -9 -1 -15 2 -11 7 3 5 11 6 17 2 7 -4 6 0 -2 10 -14 18
-26 23 -16 8 3 -5 0 -13 -6 -17 -6 -3 -15 0 -20 7 -7 11 -9 11 -9 1 0 -8 -5
-10 -12 -6 -8 4 -10 3 -5 -2 5 -5 14 -9 19 -9 6 0 13 -7 15 -15 3 -10 2 -11
-4 -4 -4 6 -16 10 -25 8 -10 -1 -18 3 -19 9 0 7 -4 3 -9 -8 -5 -11 -9 -14 -9
-7 -1 6 -10 12 -22 12 -13 0 -18 -4 -13 -12 5 -7 3 -8 -7 -2 -7 4 -29 9 -47
10 -22 1 -29 -1 -21 -7 11 -6 11 -11 2 -20 -10 -10 -14 -7 -22 12 -5 13 -10
18 -10 10 -1 -10 -4 -11 -15 -2 -12 10 -13 8 -9 -8 3 -13 1 -21 -6 -21 -7 0
-10 4 -7 9 9 13 -35 21 -53 10 -15 -10 -15 -10 0 -6 9 3 21 2 28 -2 7 -5 -12
-8 -42 -7 -30 0 -53 4 -51 8 2 4 -1 10 -7 14 -7 4 -9 3 -5 -4 9 -15 -11 -25
-51 -26 -19 -1 -38 -8 -44 -16 -8 -11 -9 -9 -4 10 3 14 3 20 -2 14 -4 -6 -24
-10 -43 -8 -22 2 -29 0 -20 -6 8 -5 18 -6 22 -4 4 3 8 0 8 -6 0 -7 -8 -9 -21
-5 -14 5 -19 3 -15 -4 4 -6 -6 -5 -26 3 -38 14 -47 15 -68 1 -21 -14 -102 -15
-119 -1 -12 9 -13 8 -7 -3 6 -9 5 -12 -5 -9 -8 3 -22 1 -32 -4 -12 -6 -22 -4
-33 7 -8 8 -21 15 -27 15 -9 0 -8 -3 0 -8 10 -7 10 -12 0 -27 -11 -14 -16 -15
-22 -5 -5 9 -4 11 3 6 7 -4 12 -2 12 3 0 6 -9 11 -21 11 -11 0 -18 -4 -15 -8
3 -5 -1 -9 -9 -9 -8 0 -15 4 -15 9 0 4 -4 8 -10 8 -5 0 -7 -7 -3 -15 4 -13 0
-15 -21 -11 -15 3 -24 1 -21 -5 4 -5 11 -6 17 -3 7 5 8 2 4 -5 -5 -7 -15 -10
-23 -7 -11 4 -13 2 -9 -9 3 -8 1 -15 -3 -15 -5 0 -12 6 -14 13 -3 7 -6 5 -6
-5 -1 -10 -6 -18 -12 -18 -5 0 -7 -5 -4 -10 4 -6 1 -9 -7 -8 -7 2 -12 -2 -11
-7 1 -6 -8 -12 -19 -12 -12 -1 -24 -6 -27 -11 -3 -5 -14 -12 -25 -15 -11 -4
-16 -13 -12 -22 3 -8 3 -15 0 -15 -2 0 -9 10 -14 23 -9 22 -9 22 -9 1 -1 -12
-8 -25 -17 -28 -8 -3 -12 -11 -8 -17 4 -8 3 -9 -5 -5 -6 4 -9 11 -7 15 3 4 -1
8 -9 8 -8 0 -13 -5 -12 -11 1 -6 -3 -10 -10 -9 -6 1 -17 -5 -25 -14 -7 -9 -8
-14 -3 -11 6 4 17 3 24 -1 9 -6 5 -9 -13 -10 -50 -3 -54 -4 -48 -19 4 -12 0
-14 -17 -9 -18 4 -20 3 -10 -9 10 -13 8 -13 -14 -5 -17 7 -28 7 -32 0 -4 -5
-3 -9 2 -8 22 4 32 -2 26 -17 -3 -9 -9 -12 -12 -7 -8 11 -31 15 -30 6 3 -19
-2 -33 -11 -33 -5 0 -7 7 -4 15 12 29 -6 15 -21 -17 -8 -18 -13 -25 -10 -15 2
9 0 17 -5 17 -9 0 -14 -15 -11 -33 1 -5 -2 -6 -7 -3 -5 3 -19 -6 -32 -19 -13
-13 -27 -22 -31 -19 -5 3 -25 -12 -46 -33 -20 -21 -34 -33 -30 -26 5 8 1 8
-17 0 -13 -7 -22 -16 -18 -22 3 -5 -2 -4 -11 4 -15 12 -17 12 -11 -2 4 -12 1
-15 -15 -12 -12 2 -19 0 -16 -6 4 -5 1 -9 -5 -9 -6 0 -8 -5 -4 -11 4 -7 -2 -6
-17 2 -21 10 -22 10 -12 -2 9 -11 8 -19 -3 -33 -8 -11 -14 -16 -14 -10 0 5 -8
14 -18 21 -15 9 -19 8 -19 -3 0 -7 4 -11 9 -8 4 3 8 1 8 -4 0 -10 -47 -27 -63
-23 -5 1 -6 -3 -2 -9 3 -6 -3 -22 -14 -36 -12 -15 -21 -22 -21 -15 0 6 -7 11
-16 11 -12 0 -15 -6 -11 -21 4 -16 3 -18 -9 -8 -11 9 -14 9 -14 -1 0 -7 -8
-10 -18 -8 -11 3 -19 0 -20 -8 -1 -8 -3 -21 -4 -29 -1 -8 -5 -12 -9 -9 -4 2
-10 -2 -12 -8 -4 -11 -6 -11 -6 0 -1 15 -35 -2 -64 -33 -10 -11 -16 -15 -13
-8 4 6 2 15 -4 18 -6 4 -9 1 -8 -6 2 -7 -3 -14 -9 -15 -7 -1 -18 -2 -24 -3 -6
0 -3 -8 5 -17 20 -19 21 -31 2 -15 -15 12 -46 5 -46 -11 0 -6 8 -4 18 3 15 13
16 12 3 -3 -7 -10 -17 -16 -21 -13 -5 3 -11 1 -15 -5 -3 -5 -1 -10 6 -10 7 0
10 -3 7 -6 -4 -3 -16 0 -28 6 -12 7 -20 8 -16 2 3 -5 -2 -16 -11 -23 -14 -12
-16 -12 -8 0 6 10 4 12 -4 7 -7 -5 -10 -14 -7 -21 3 -9 -2 -12 -15 -10 -14 3
-19 -1 -17 -13 2 -14 -4 -17 -36 -15 -22 0 -34 -2 -28 -6 8 -5 5 -16 -8 -36
-11 -17 -20 -25 -20 -19 0 5 5 15 11 21 8 8 7 13 -2 18 -8 5 -10 4 -5 -4 4 -6
0 -14 -9 -17 -9 -4 -14 -13 -11 -21 5 -11 2 -11 -15 -2 -15 8 -19 8 -15 0 4
-6 2 -11 -4 -11 -7 0 -10 -7 -6 -15 7 -19 1 -19 -17 0 -13 13 -17 10 -31 -20
-9 -19 -22 -37 -28 -41 -7 -4 -8 -3 -4 4 4 7 2 12 -3 12 -6 0 -11 -5 -11 -11
0 -5 -4 -7 -10 -4 -5 3 -10 2 -10 -4 0 -5 6 -11 13 -14 6 -3 1 -5 -13 -4 -14
1 -29 6 -33 12 -5 6 -7 2 -4 -10 2 -11 9 -19 16 -17 7 1 9 -2 6 -8 -5 -8 -14
-5 -28 7 -11 10 -17 12 -13 5 5 -9 3 -13 -5 -11 -8 1 -21 1 -29 0 -12 -1 -13
-3 -1 -10 10 -7 11 -12 1 -27 -11 -18 -11 -18 -6 -1 6 18 5 18 -26 0 -17 -10
-33 -25 -35 -33 -4 -13 -3 -13 6 0 6 8 11 10 11 4 0 -22 -22 -34 -44 -22 -18
10 -19 9 -8 -4 11 -13 10 -16 -5 -14 -12 1 -17 -5 -16 -19 1 -20 1 -20 -13 -1
-12 17 -14 18 -14 3 0 -9 -7 -17 -16 -17 -11 0 -14 -6 -10 -22 3 -13 3 -17 0
-10 -3 6 -11 9 -16 6 -6 -4 -8 -3 -5 3 3 5 0 10 -7 10 -8 0 -11 -8 -8 -19 4
-18 -34 -41 -52 -30 -5 3 -6 0 -2 -7 5 -8 0 -10 -18 -7 -15 3 -24 1 -21 -4 3
-5 1 -11 -5 -15 -6 -4 -7 -11 -4 -17 5 -7 2 -8 -5 -3 -11 6 -52 -25 -51 -40 0
-3 0 -7 0 -9 0 -3 -14 -1 -30 4 -19 5 -28 5 -25 -1 4 -5 -1 -12 -9 -15 -9 -3
-16 -12 -16 -20 0 -8 -9 -14 -19 -14 -11 0 -26 -7 -34 -15 -8 -8 -17 -11 -21
-8 -3 4 -6 1 -6 -6 0 -7 -5 -9 -12 -5 -6 4 -8 3 -5 -4 4 -5 17 -8 30 -6 20 4
20 4 2 -4 -11 -5 -26 -7 -34 -4 -10 4 -12 1 -6 -9 8 -12 6 -12 -8 -1 -14 12
-16 11 -12 -8 4 -19 2 -20 -12 -8 -9 7 -14 8 -10 2 3 -6 -3 -16 -13 -24 -10
-8 -16 -18 -13 -24 4 -6 -1 -5 -10 3 -15 12 -17 12 -12 -1 4 -11 -1 -14 -22
-13 -15 1 -20 0 -9 -2 16 -4 15 -7 -9 -19 -15 -8 -32 -11 -38 -7 -6 4 -7 1 -2
-7 6 -9 4 -12 -6 -8 -8 3 -24 -1 -34 -9 -17 -13 -17 -15 -2 -10 9 4 17 2 17
-3 0 -6 -7 -10 -16 -10 -8 0 -22 -7 -31 -15 -8 -8 -19 -12 -25 -9 -7 5 -8 2
-3 -6 6 -10 4 -12 -7 -7 -22 8 -28 -1 -18 -27 5 -13 4 -30 -3 -42 -9 -16 -8
-17 5 -7 8 7 19 9 23 5 5 -4 5 -2 2 4 -3 6 1 11 9 11 8 0 13 -6 10 -14 -3 -7
0 -13 7 -14 16 -2 67 2 89 6 10 2 18 0 18 -5 0 -5 10 -14 23 -20 20 -10 21
-10 4 3 -13 11 -15 16 -5 19 7 3 18 -2 24 -10 13 -17 44 -25 44 -11 0 5 5 9
12 9 6 0 3 -10 -8 -22 -10 -12 -14 -18 -8 -15 7 4 17 0 23 -7 10 -12 8 -13 -8
-9 -13 3 -21 1 -21 -6 0 -7 5 -9 10 -6 6 3 10 4 10 1 0 -3 -10 -10 -21 -17
-17 -9 -23 -8 -30 2 -7 11 -9 10 -9 -4 0 -12 -4 -16 -12 -11 -8 5 -8 1 2 -12
8 -10 11 -16 6 -12 -10 8 -47 -23 -40 -34 8 -13 -3 -9 -19 7 -13 13 -16 13
-21 -1 -3 -8 -2 -12 4 -9 6 3 10 1 10 -4 0 -6 -5 -11 -11 -11 -5 0 -7 -5 -3
-11 4 -7 -1 -7 -16 1 -13 7 -20 8 -16 2 9 -14 -42 -64 -56 -56 -7 4 -8 2 -4
-4 4 -7 2 -12 -4 -12 -6 0 -8 -5 -4 -12 4 -6 3 -8 -4 -4 -6 3 -17 0 -25 -8 -8
-8 -18 -12 -22 -8 -5 4 -5 -1 -1 -12 5 -14 3 -17 -10 -12 -12 5 -15 2 -10 -10
6 -15 4 -15 -11 -3 -13 11 -15 11 -9 1 6 -9 3 -12 -10 -10 -11 2 -18 -2 -17
-9 2 -7 -7 -13 -20 -14 -21 0 -21 -1 -2 -9 14 -6 16 -9 5 -10 -8 -2 -18 -2
-22 -1 -5 0 -7 -5 -5 -12 1 -6 -6 -11 -15 -11 -10 1 -16 -3 -15 -10 1 -6 -4
-10 -12 -8 -11 2 -12 0 -3 -11 9 -11 8 -14 -3 -15 -8 -1 -22 -3 -30 -4 -9 -1
-14 -7 -11 -15 7 -17 -10 -17 -18 0 -4 6 -4 2 -2 -11 4 -19 2 -21 -10 -11 -12
10 -15 10 -12 -2 2 -8 8 -17 13 -21 6 -5 6 -8 -2 -8 -7 0 -17 8 -23 18 -11 16
-11 16 -6 0 3 -12 0 -18 -9 -18 -8 0 -15 -4 -15 -10 0 -5 8 -7 18 -4 9 3 6 -2
-8 -10 -14 -8 -33 -15 -42 -16 -10 0 -18 -4 -18 -10 0 -5 -8 -10 -17 -11 -12
0 -13 -2 -5 -6 10 -4 10 -8 2 -18 -6 -8 -18 -11 -26 -8 -8 3 -14 0 -14 -6 0
-6 5 -11 12 -11 6 0 8 -3 5 -6 -4 -4 -13 -1 -22 6 -13 11 -14 10 -9 -5 5 -11
3 -16 -2 -12 -6 3 -17 -3 -24 -14 -16 -21 -36 -27 -24 -6 5 8 2 8 -9 -2 -9 -7
-17 -19 -17 -25 0 -6 5 -4 11 4 9 13 10 13 6 0 -2 -8 -12 -14 -21 -14 -12 2
-14 -1 -6 -11 8 -9 4 -12 -16 -9 -19 2 -28 -3 -31 -17 -3 -10 -10 -16 -15 -13
-5 3 -8 -2 -6 -12 2 -14 -3 -19 -19 -18 -13 1 -20 -3 -16 -8 9 -16 -20 -28
-36 -15 -8 7 -12 8 -9 2 3 -5 2 -21 -3 -34 -8 -19 -12 -21 -24 -11 -12 10 -14
8 -11 -7 5 -22 -29 -49 -39 -33 -4 6 -1 9 6 8 6 -2 14 4 16 12 4 12 3 12 -5 2
-5 -8 -13 -13 -18 -13 -5 0 -8 -8 -8 -19 1 -22 -18 -22 -28 0 -5 12 -7 12 -7
-2 -1 -9 7 -22 17 -28 13 -8 13 -10 2 -9 -39 4 -48 -1 -44 -23 2 -13 2 -17 -2
-10 -3 6 -10 12 -15 12 -6 0 -7 -4 -4 -10 4 -6 -1 -7 -11 -3 -14 5 -16 3 -11
-11 4 -9 3 -15 -2 -11 -5 3 -16 -2 -24 -10 -18 -18 -31 -20 -21 -3 4 7 3 8 -4
4 -6 -4 -8 -14 -5 -23 5 -12 3 -14 -8 -8 -12 8 -12 6 0 -8 13 -16 12 -17 -12
-8 -23 9 -25 8 -22 -11 4 -17 2 -19 -7 -10 -7 7 -16 12 -21 12 -5 0 -1 -8 9
-17 15 -16 15 -17 -1 -23 -9 -3 -24 -17 -32 -31 -8 -13 -12 -16 -9 -6 3 9 1
17 -4 17 -6 0 -10 -5 -10 -11 0 -5 -6 -7 -12 -3 -8 5 -7 0 2 -11 9 -11 10 -16
3 -11 -8 4 -13 2 -14 -6 0 -7 -4 -4 -9 7 -5 11 -9 14 -9 7 -1 -8 -6 -10 -13
-6 -9 5 -9 2 1 -9 12 -15 11 -17 -3 -17 -10 0 -15 -4 -12 -9 3 -5 -2 -8 -12
-7 -10 0 -16 -5 -14 -13 2 -11 0 -12 -11 -3 -11 9 -14 8 -14 -3 0 -8 5 -15 10
-15 6 0 7 -3 4 -6 -4 -4 -14 -1 -24 7 -11 9 -14 10 -9 2 4 -8 2 -13 -4 -13 -6
0 -8 -5 -4 -12 5 -8 2 -8 -10 1 -15 12 -17 12 -14 0 2 -8 8 -18 13 -22 6 -5 4
-7 -5 -6 -35 3 -43 0 -31 -15 10 -12 9 -14 -6 -12 -21 3 -56 -32 -47 -46 4 -6
-4 -4 -17 3 -22 11 -23 11 -10 -5 12 -14 12 -16 -3 -10 -11 4 -19 -1 -25 -17
-5 -13 -10 -19 -10 -13 -1 6 -7 11 -15 11 -15 0 -16 -14 -2 -36 6 -10 5 -12
-3 -7 -21 13 -60 -3 -73 -32 -10 -20 -20 -26 -38 -24 -20 2 -22 0 -10 -8 13
-8 13 -10 -1 -10 -9 0 -22 -7 -29 -15 -7 -8 -16 -12 -21 -9 -5 3 -6 -3 -2 -12
5 -13 3 -15 -8 -9 -12 8 -12 6 0 -8 12 -15 12 -17 -4 -11 -12 5 -16 4 -12 -3
4 -6 -1 -17 -11 -24 -15 -12 -16 -12 -4 2 10 14 10 18 -3 23 -9 3 -14 2 -11
-3 3 -5 -1 -14 -9 -21 -8 -7 -15 -22 -16 -34 0 -11 -3 -15 -6 -8 -2 6 -12 12
-21 12 -13 0 -14 -2 -4 -9 11 -7 10 -9 -3 -15 -9 -3 -13 -10 -10 -16 3 -6 -1
-7 -9 -4 -10 4 -18 -1 -23 -12 -6 -16 -7 -16 -14 2 -7 17 -8 17 -8 -4 -1 -14
-5 -20 -12 -17 -6 4 -10 1 -8 -6 3 -27 -1 -44 -9 -34 -4 6 -16 17 -27 25 -18
14 -19 13 -8 -1 15 -19 -1 -40 -26 -32 -13 4 -13 3 -2 -5 15 -11 7 -32 -12
-32 -7 0 -6 4 3 10 8 5 11 10 5 9 -5 0 -28 -16 -50 -36 -22 -20 -34 -33 -27
-29 6 4 12 2 12 -3 0 -10 -29 -16 -53 -12 -4 0 -6 -2 -6 -6 1 -5 1 -17 0 -28
-1 -17 -3 -18 -11 -5 -6 9 -10 11 -10 3 0 -8 -7 -10 -18 -6 -16 7 -16 6 1 -11
21 -22 21 -21 -3 -23 -13 -1 -18 2 -13 10 4 7 0 6 -10 -2 -14 -11 -15 -17 -5
-28 9 -11 8 -13 -3 -11 -8 2 -13 -3 -11 -10 1 -8 -2 -11 -8 -7 -6 3 -8 11 -4
16 3 6 -3 5 -14 -2 -12 -8 -18 -20 -15 -33 4 -17 3 -18 -6 -6 -9 13 -12 13
-23 1 -10 -10 -10 -12 0 -7 6 4 12 2 12 -3 0 -11 -11 -14 -27 -8 -5 1 -7 5 -6
9 2 4 -4 5 -12 1 -13 -4 -12 -9 6 -24 12 -11 18 -19 13 -19 -6 0 -16 6 -23 13
-11 10 -13 10 -7 0 4 -7 2 -13 -4 -13 -6 0 -8 -5 -4 -12 6 -10 4 -10 -8 0 -14
12 -16 10 -11 -10 4 -18 3 -20 -6 -8 -9 13 -11 12 -12 -5 -1 -17 -2 -16 -9 5
l-8 25 -1 -27 c-1 -26 -14 -34 -44 -29 -5 1 -6 -3 -2 -8 3 -6 13 -8 23 -5 15
5 15 5 -1 -6 -9 -6 -21 -9 -26 -6 -4 3 -8 -4 -7 -17 1 -14 -4 -21 -13 -19 -28
6 -60 -8 -67 -31 -5 -12 -7 -24 -7 -27 1 -3 -10 -6 -25 -5 -17 0 -26 -5 -24
-13 1 -7 -5 -15 -13 -18 -8 -3 -12 -11 -9 -18 3 -6 -2 -2 -10 8 -18 22 -21 14
-7 -13 7 -13 6 -18 -4 -18 -8 0 -12 4 -9 9 4 5 -3 4 -15 -4 -12 -7 -16 -15
-11 -16 6 -2 1 -12 -11 -23 -18 -16 -25 -17 -38 -6 -14 10 -14 10 -5 -3 13
-19 16 -62 3 -55 -15 10 -10 -2 8 -16 14 -12 16 -12 8 0 -6 10 -4 12 5 6 10
-6 9 -11 -5 -22 -11 -7 -13 -13 -7 -13 7 0 12 -7 12 -16 0 -9 5 -12 13 -8 7 5
6 0 -3 -11 -8 -10 -10 -16 -5 -13 6 4 15 -5 22 -18 6 -13 7 -22 3 -19 -5 3 -7
-3 -5 -12 1 -10 -2 -26 -7 -36 -5 -9 -5 -17 -1 -16 26 4 35 -1 24 -15 -9 -10
-8 -16 4 -26 11 -9 12 -16 5 -26 -9 -9 -5 -12 14 -10 17 2 23 -1 19 -8 -10
-15 -11 -76 -2 -76 4 0 9 8 12 18 2 9 4 2 4 -16 0 -18 -3 -28 -7 -22 -5 9 -9
9 -14 1 -4 -6 -2 -11 4 -11 6 0 8 -4 5 -10 -3 -6 1 -7 9 -4 21 8 31 -19 17
-45 -8 -14 -8 -22 1 -27 6 -4 8 -3 4 4 -3 6 -2 13 3 16 5 4 8 -2 6 -11 -1 -10
0 -22 4 -28 9 -16 10 -36 1 -30 -5 3 -11 1 -15 -5 -3 -5 -2 -10 3 -10 10 0 10
-45 -1 -56 -3 -4 -5 3 -2 14 2 12 -1 24 -6 28 -5 3 -9 2 -8 -3 1 -4 1 -17 0
-28 -1 -17 -3 -18 -11 -5 -7 11 -10 11 -10 2 0 -8 -5 -10 -12 -6 -9 5 -8 2 1
-9 12 -15 12 -17 -4 -11 -13 5 -16 4 -11 -4 4 -7 2 -12 -5 -12 -8 0 -8 -5 2
-17 11 -15 10 -15 -8 1 -22 18 -22 18 -18 -4 4 -19 2 -20 -12 -8 -12 9 -15 9
-9 1 4 -8 1 -13 -8 -13 -10 0 -16 -9 -17 -22 0 -22 -1 -22 -9 -3 -8 18 -9 18
-9 2 -1 -10 -6 -15 -12 -12 -6 4 -9 0 -7 -10 2 -11 -4 -19 -15 -20 -9 -2 -17
2 -17 8 0 5 -3 7 -6 4 -4 -4 -1 -14 7 -24 10 -12 10 -15 1 -9 -16 9 -44 -12
-35 -27 3 -6 1 -7 -5 -3 -11 7 -17 -6 -13 -27 1 -5 -3 -6 -8 -2 -6 3 -15 -3
-20 -14 -11 -20 -48 -22 -43 -1 1 6 -2 9 -7 5 -6 -3 -7 -13 -4 -21 4 -10 -2
-17 -16 -21 -11 -3 -21 -9 -21 -14 0 -5 -3 -8 -7 -8 -23 4 -33 -3 -34 -23 -1
-16 -3 -18 -6 -6 -3 14 -8 13 -30 -8 -14 -13 -33 -24 -42 -25 -12 0 -11 -3 4
-9 18 -8 18 -9 -5 -10 -14 -2 -29 -2 -34 -1 -5 1 -3 -5 4 -14 11 -13 10 -14
-5 -9 -14 6 -16 4 -10 -7 7 -11 5 -11 -10 1 -11 9 -16 10 -11 3 7 -13 -3 -17
-34 -14 -13 2 -13 1 0 -8 13 -10 7 -15 -13 -12 -4 0 -6 -2 -6 -6 1 -5 1 -15 0
-23 -1 -13 -2 -13 -11 0 -8 12 -10 10 -11 -10 l-1 -25 -8 25 c-4 14 -8 19 -9
12 -1 -7 -6 -10 -12 -6 -8 5 -10 -1 -7 -18 3 -16 0 -25 -8 -25 -7 0 -11 4 -8
9 3 4 0 8 -5 8 -11 0 -15 -15 -12 -34 1 -5 -6 -3 -15 5 -15 12 -17 12 -9 0 6
-11 4 -13 -10 -7 -15 5 -16 4 -5 -9 7 -9 10 -18 6 -22 -3 -3 -6 -1 -6 6 0 8
-5 9 -19 2 -10 -6 -22 -7 -26 -3 -3 4 -5 0 -3 -8 2 -11 -4 -14 -22 -13 -24 3
-24 2 -4 -6 12 -5 25 -15 30 -22 5 -8 3 -10 -7 -3 -18 11 -60 13 -53 3 8 -13
-48 -58 -65 -52 -9 4 -13 3 -9 -2 4 -4 0 -14 -10 -21 -13 -9 -20 -10 -31 -1
-12 9 -13 9 -7 0 4 -8 2 -13 -4 -13 -6 0 -8 -5 -4 -12 5 -8 2 -9 -9 -5 -11 4
-17 1 -17 -9 0 -8 -4 -13 -9 -9 -6 3 -14 -2 -19 -10 -4 -9 -18 -17 -29 -18
-12 0 -20 -5 -17 -9 3 -4 12 -4 22 -1 18 7 17 5 -12 -17 -13 -10 -17 -10 -12
-2 4 6 3 12 -2 12 -5 0 -12 -10 -15 -22 -5 -19 -8 -20 -23 -7 -15 12 -17 12
-9 0 6 -11 4 -13 -7 -9 -8 4 -21 2 -29 -3 -11 -7 -11 -9 -1 -9 7 0 10 -5 7
-10 -4 -6 -10 -8 -14 -6 -4 3 -17 -3 -27 -12 -10 -10 -23 -19 -29 -20 -5 -2
-9 -11 -9 -21 1 -12 -4 -17 -12 -14 -8 3 -11 10 -7 16 3 6 1 7 -6 3 -6 -4 -9
-12 -6 -17 4 -5 1 -9 -5 -9 -6 0 -8 -5 -4 -13 5 -8 2 -7 -9 2 -16 12 -17 12
-11 -5 4 -10 4 -16 0 -12 -4 3 -17 -3 -28 -14 -11 -11 -26 -17 -35 -14 -14 6
-14 4 -2 -11 7 -10 9 -15 5 -11 -5 4 -15 3 -23 -3 -7 -6 -13 -8 -13 -5 0 4
-10 -2 -22 -13 -11 -11 -25 -18 -30 -15 -4 3 -8 -2 -8 -10 0 -9 -4 -16 -10
-16 -5 0 -7 8 -4 18 5 15 4 15 -5 1 -15 -23 -127 -99 -135 -91 -4 3 -4 -2 0
-12 6 -15 4 -17 -6 -11 -10 6 -12 4 -7 -8 4 -12 0 -14 -19 -11 -22 4 -25 2
-20 -18 3 -13 3 -17 0 -10 -4 8 -11 5 -25 -10 -10 -13 -18 -17 -19 -10 0 6 5
12 10 12 6 0 10 6 10 13 -1 6 -12 -1 -25 -17 -13 -17 -21 -34 -18 -39 3 -6 2
-7 -4 -4 -5 3 -22 0 -37 -8 -14 -8 -24 -10 -21 -5 4 6 4 10 1 10 -3 0 -10 -9
-15 -19 -9 -16 -8 -18 12 -15 20 4 21 4 2 -5 -12 -5 -25 -5 -33 2 -9 7 -11 6
-5 -8 5 -14 3 -17 -10 -12 -11 4 -17 1 -17 -8 0 -15 -20 -16 -31 -2 -3 5 -9 1
-12 -8 -4 -9 -3 -13 3 -10 6 3 10 1 10 -5 0 -6 5 -8 12 -4 6 4 8 3 5 -3 -4 -6
-18 -8 -32 -6 -17 4 -27 0 -31 -11 -3 -9 -11 -13 -18 -9 -6 4 -4 -2 4 -12 14
-17 14 -18 -6 -7 -22 12 -44 0 -44 -23 0 -5 5 -3 10 5 6 9 10 10 10 3 0 -6 -5
-15 -10 -18 -6 -4 -7 -12 -3 -18 4 -7 1 -7 -9 1 -10 8 -14 21 -11 30 3 10 -2
7 -12 -6 -9 -13 -15 -29 -12 -35 3 -7 -3 -13 -14 -13 -13 0 -15 4 -8 12 7 8 6
14 -1 19 -6 4 -10 3 -9 -2 4 -15 -13 -43 -22 -37 -5 3 -8 2 -7 -3 1 -4 -3 -19
-10 -33 -12 -22 -11 -23 1 -8 8 10 18 14 22 10 5 -4 5 -2 2 4 -9 15 20 27 29
12 4 -7 3 -8 -4 -4 -7 4 -12 1 -12 -8 0 -8 -5 -16 -12 -18 -8 -3 -6 -7 5 -11
10 -4 16 -2 14 5 -1 6 4 13 12 16 9 3 11 0 6 -8 -5 -9 -4 -11 4 -6 6 4 8 12 5
18 -4 6 1 8 16 3 17 -6 21 -4 14 6 -6 12 -5 12 8 1 10 -8 19 -9 22 -3 4 5 15
9 26 8 10 -1 16 -5 14 -9 -3 -4 0 -8 5 -8 6 0 11 5 11 10 0 6 5 10 11 10 5 0
8 -4 5 -8 -3 -5 1 -9 9 -9 8 0 12 4 9 9 -3 4 5 8 18 8 18 0 20 -2 8 -10 -22
-14 -3 -12 20 3 17 10 22 9 30 -3 6 -10 10 -11 10 -2 0 7 13 12 30 12 17 0 30
4 30 10 0 5 -8 7 -17 4 -14 -5 -15 -4 -4 4 9 6 23 7 38 1 14 -5 23 -5 23 1 0
6 -5 10 -12 10 -6 0 -8 3 -4 7 4 5 14 -1 22 -11 8 -11 14 -15 14 -9 0 7 18 10
45 8 25 -1 48 2 52 8 4 6 1 7 -7 2 -8 -5 -11 -4 -6 3 7 12 31 6 55 -12 11 -8
13 -8 8 1 -6 9 6 11 43 9 28 -1 53 1 56 5 2 5 -5 6 -16 4 -11 -2 -18 0 -16 4
3 4 34 7 68 7 45 -1 66 3 74 13 9 12 15 13 26 4 14 -12 42 -12 54 0 10 10 26
9 20 -1 -2 -4 5 -9 17 -9 17 -2 19 0 7 7 -11 7 -11 10 -2 10 7 0 10 4 7 10 -3
6 1 7 9 4 9 -3 13 -11 10 -16 -4 -6 -1 -8 7 -6 8 3 13 11 11 17 -2 9 3 9 18 1
11 -6 20 -8 20 -5 0 3 10 1 21 -6 15 -8 19 -8 15 0 -4 6 1 14 11 17 10 3 26
10 36 15 11 6 25 6 38 -2 15 -8 19 -8 15 0 -4 6 -3 11 3 11 5 0 11 -6 14 -12
3 -10 8 -10 18 1 12 12 12 13 0 6 -9 -5 -12 -4 -7 3 4 6 13 9 21 6 8 -4 13
-10 10 -14 -3 -5 0 -12 6 -16 7 -4 9 -3 6 3 -4 6 0 16 7 22 9 8 17 8 20 2 3
-5 1 -12 -4 -14 -6 -3 -5 -4 2 -3 7 2 13 10 12 17 -1 8 7 15 17 15 10 0 15 -4
13 -8 -3 -4 2 -8 11 -8 9 0 14 4 11 8 -2 4 5 9 17 9 16 2 18 0 8 -6 -9 -6 3
-9 32 -8 25 0 44 4 41 8 -2 5 -11 6 -19 2 -8 -3 -15 -1 -15 4 0 4 27 8 60 8
50 0 59 -2 55 -15 -5 -11 -3 -12 6 -3 13 13 3 36 -13 27 -6 -4 -8 -2 -5 3 6
10 60 9 77 -2 5 -3 13 2 18 11 8 15 10 15 16 -1 6 -17 7 -17 25 -1 18 17 20
16 30 -1 6 -10 11 -13 11 -7 0 6 11 10 25 9 14 -2 28 2 32 7 4 7 1 8 -8 3 -11
-6 -11 -5 -2 5 10 11 17 10 37 -4 30 -19 33 -15 8 10 -16 17 -16 17 0 11 10
-3 20 -2 23 4 4 5 11 7 16 3 5 -3 7 -10 3 -15 -3 -5 -10 -6 -16 -3 -7 4 -8 2
-4 -5 4 -6 13 -8 19 -4 7 4 21 7 32 5 l20 -2 -20 9 c-11 5 -14 10 -7 12 24 3
27 4 40 13 12 7 12 4 2 -15 -13 -24 -13 -24 9 -5 11 11 21 15 21 11 0 -5 7 0
15 11 13 18 14 18 8 -4 -4 -18 -2 -21 11 -16 9 3 13 11 10 18 -3 6 1 3 9 -6
17 -22 32 -11 14 11 -10 14 -10 14 5 3 9 -7 18 -9 20 -5 3 4 3 3 2 -4 -5 -19
12 -24 26 -8 6 7 18 11 26 8 8 -3 14 0 14 6 0 6 -5 11 -12 11 -6 0 -8 3 -5 6
4 4 13 1 22 -6 9 -7 18 -10 22 -6 3 3 1 6 -7 6 -10 0 -10 3 0 14 6 8 19 12 27
9 12 -5 15 -2 10 10 -5 15 -3 16 13 7 22 -12 41 -13 23 -2 -17 10 -1 33 25 35
11 0 18 5 16 9 -3 4 1 8 8 8 9 0 10 2 2 8 -9 5 -8 11 2 20 12 11 14 10 14 -3
0 -9 4 -14 10 -10 5 3 7 13 4 23 -5 16 -5 16 6 0 6 -10 16 -18 23 -18 8 0 8 3
2 8 -5 4 -11 16 -13 27 -2 14 0 16 6 7 7 -10 11 -10 22 3 11 13 15 13 21 3 6
-9 9 -7 9 8 0 12 7 28 17 35 18 16 23 16 33 -1 5 -8 9 -7 13 5 4 9 3 13 -3 10
-6 -3 -10 -1 -10 4 0 6 5 11 11 11 5 0 7 5 3 11 -4 7 1 7 16 -1 15 -8 20 -8
16 -1 -4 6 -2 11 4 11 6 0 9 4 6 8 -3 5 1 9 9 9 10 0 12 -4 5 -12 -13 -16 14
-40 31 -29 7 4 9 3 5 -4 -3 -5 -3 -12 1 -15 5 -2 2 -2 -6 0 -11 3 -11 1 -1
-12 7 -8 9 -23 6 -32 -5 -15 -4 -15 9 1 8 11 15 15 15 9 0 -7 -7 -19 -16 -27
-8 -9 -12 -16 -7 -16 5 0 14 5 19 10 7 7 11 6 11 -5 0 -8 -4 -15 -8 -15 -5 0
-6 -6 -3 -14 3 -9 12 -12 22 -9 11 5 14 2 10 -8 -4 -10 2 -14 23 -14 15 -1 25
3 23 7 -3 5 -9 6 -14 3 -5 -3 -11 -1 -15 4 -3 6 6 8 21 5 17 -3 23 -1 19 7 -5
8 -1 8 15 -1 17 -9 25 -9 38 3 19 16 46 12 36 -5 -4 -7 -2 -8 4 -4 7 4 12 13
12 21 0 8 5 17 12 21 8 5 9 2 5 -9 -3 -9 -2 -19 4 -22 5 -4 8 -1 7 5 -2 7 6
14 16 16 10 1 22 8 26 15 5 6 16 9 25 5 12 -4 16 -2 12 7 -3 9 2 13 16 12 11
-1 23 -7 25 -13 2 -7 10 -5 22 6 14 12 16 18 7 24 -7 4 -3 6 10 5 12 0 20 -4
18 -7 -2 -4 2 -7 10 -7 8 0 12 4 9 9 -3 4 2 8 11 8 8 0 18 7 21 15 4 8 11 12
16 9 6 -4 5 -10 -3 -15 -11 -7 -12 -10 -1 -21 11 -11 13 -10 10 2 -2 9 4 14
14 14 10 -1 15 2 12 7 -3 5 0 17 5 26 9 16 11 15 11 -7 1 -23 2 -23 10 -5 5
11 9 14 9 8 1 -7 9 -13 19 -13 14 0 15 2 2 10 -13 9 -13 10 0 10 13 0 13 1 0
10 -8 5 -11 10 -7 10 4 0 20 -8 35 -17 26 -17 26 -17 13 0 -15 20 -2 23 18 5
9 -9 12 -9 7 -1 -8 15 14 22 40 12 14 -5 21 -3 21 6 0 8 -7 11 -16 7 -17 -6
-16 -4 13 18 13 10 17 10 12 3 -4 -7 -3 -13 3 -13 5 0 13 5 16 10 5 8 12 7 23
-2 12 -10 14 -10 8 0 -4 6 -3 12 1 12 5 0 15 -6 22 -12 8 -7 11 -8 9 -3 -3 6
0 16 8 23 12 11 14 10 14 -5 0 -14 2 -15 9 -5 10 17 58 42 80 42 14 0 14 -2 1
-10 -20 -13 -6 -12 24 1 16 8 23 17 19 28 -3 10 -2 12 4 4 11 -15 65 -5 56 11
-4 6 2 4 12 -4 11 -9 16 -10 11 -2 -5 9 4 12 33 12 32 0 41 4 42 18 0 14 2 14
9 -3 5 -11 9 -14 9 -6 1 7 7 11 16 7 8 -3 15 -1 15 4 0 6 -5 10 -11 10 -5 0
-7 5 -3 11 4 8 9 7 14 -2 5 -7 16 -14 24 -15 9 -1 14 2 10 7 -3 5 -10 6 -16 3
-7 -4 -8 -2 -4 4 4 6 14 8 23 5 11 -5 14 -3 8 6 -4 7 5 5 21 -5 28 -18 29 -18
14 0 -14 18 -14 19 9 7 19 -11 22 -11 16 0 -6 9 -3 11 8 6 9 -3 19 -1 23 5 5
7 2 8 -6 3 -9 -5 -11 -4 -6 4 6 9 11 9 24 -1 12 -10 14 -10 8 0 -5 8 -1 12 11
12 11 0 25 6 32 12 11 10 13 10 7 1 -11 -20 5 -15 32 10 14 12 22 16 17 8 -6
-10 -2 -11 15 -6 17 5 21 4 15 -5 -5 -9 -4 -11 4 -6 6 4 9 12 6 17 -4 5 -1 10
4 10 6 1 17 2 24 3 6 1 11 8 9 15 -1 7 2 10 8 6 6 -3 8 -11 5 -16 -10 -15 12
-10 25 6 10 12 16 13 27 4 11 -9 17 -9 26 1 8 8 8 11 1 7 -7 -4 -17 0 -24 8
-11 14 -10 14 14 5 36 -13 39 -13 32 6 -5 14 -4 15 9 4 8 -7 12 -16 9 -21 -9
-16 3 -10 17 8 8 9 9 14 3 10 -6 -3 -11 1 -11 10 0 12 5 10 20 -8 19 -24 20
-24 13 -2 -5 14 -3 23 3 23 6 0 11 -8 11 -17 0 -14 2 -15 9 -4 5 7 13 11 19 7
6 -3 14 -1 18 5 4 7 3 9 -4 5 -6 -3 -13 -2 -16 3 -7 11 13 9 33 -3 10 -7 12
-6 6 4 -6 10 -1 12 23 7 33 -7 60 13 46 34 -4 8 -3 9 4 5 7 -4 19 -3 28 2 9 5
32 6 50 2 23 -5 37 -4 44 6 7 7 18 10 26 7 8 -3 14 0 14 7 0 6 -5 8 -12 4 -7
-4 -8 -3 -4 5 4 6 11 9 16 6 4 -3 10 -2 13 2 2 5 3 3 1 -3 -1 -6 4 -11 11 -11
7 0 12 8 10 17 -2 9 3 17 10 17 8 0 12 -4 9 -9 -3 -4 0 -8 5 -8 6 0 11 5 11
10 0 6 7 10 15 10 8 0 15 -5 15 -11 0 -6 8 -3 18 8 9 10 13 14 9 7 -5 -7 -3
-15 4 -20 8 -4 9 -3 5 4 -4 7 -2 13 3 13 6 1 15 2 20 3 5 0 13 5 18 10 4 5 3
6 -4 2 -6 -3 -14 -2 -18 3 -6 11 27 7 48 -5 7 -5 6 0 -3 11 -12 15 -12 17 -1
10 20 -11 62 -15 56 -5 -3 5 -12 7 -20 3 -8 -3 -15 0 -15 5 0 10 43 7 60 -3 3
-2 12 1 20 6 13 9 13 10 0 8 -28 -3 -40 1 -40 12 0 8 4 8 13 1 8 -7 18 -7 27
-2 16 10 33 3 25 -11 -10 -15 2 -10 16 8 12 15 12 16 -1 8 -13 -7 -13 -6 -2 6
11 12 16 11 29 -6 14 -18 15 -18 9 -1 -5 14 -2 17 12 14 11 -3 23 2 30 12 7
12 19 15 43 12 29 -4 31 -2 27 16 -6 20 -5 20 18 5 22 -14 24 -14 24 1 0 19
13 20 42 5 13 -7 18 -7 14 -1 -3 6 -2 13 4 17 5 3 10 1 10 -4 0 -6 5 -11 11
-11 5 0 8 4 5 8 -6 10 24 9 41 -1 6 -4 11 -16 10 -27 -1 -10 -5 -17 -9 -14 -4
3 -5 12 -2 22 5 14 4 14 -4 2 -7 -9 -7 -19 -2 -26 6 -6 7 -14 3 -18 -4 -4 1
-4 12 0 18 7 18 6 7 -9 -17 -20 -7 -38 16 -31 9 3 6 -2 -8 -11 -14 -9 -17 -14
-8 -11 10 3 20 0 24 -6 4 -6 3 -8 -3 -5 -6 4 -16 0 -23 -8 -11 -13 -10 -14 5
-9 13 5 16 4 11 -4 -4 -7 -2 -12 3 -12 6 0 11 5 11 12 0 6 3 8 7 5 3 -4 -2
-17 -13 -29 -10 -12 -14 -18 -8 -15 7 4 14 0 18 -8 3 -8 1 -15 -5 -15 -6 0 -1
-9 12 -21 13 -11 19 -18 12 -15 -13 7 -12 -16 3 -35 6 -8 9 -24 8 -36 0 -13 6
-28 15 -35 14 -12 14 -11 2 5 -12 15 -12 17 3 11 11 -4 15 -14 11 -31 -2 -14
0 -34 6 -44 12 -24 1 -25 -18 -1 -13 15 -13 15 -4 -4 6 -12 18 -24 27 -28 14
-5 14 -9 3 -23 -12 -14 -12 -16 0 -8 11 6 13 3 8 -14 -4 -16 -2 -20 6 -12 9 7
12 2 14 -16 1 -19 -1 -22 -8 -12 -12 19 -12 3 0 -19 5 -9 12 -25 15 -35 4 -11
11 -15 18 -11 8 4 10 3 5 -2 -5 -5 -13 -9 -18 -9 -5 0 -9 -4 -9 -10 0 -5 8
-10 18 -9 12 1 18 -6 18 -21 0 -13 -5 -22 -10 -21 -6 2 -8 1 -3 -1 4 -3 5 -9
2 -14 -4 -5 2 -6 11 -2 12 4 15 3 10 -6 -5 -7 -1 -20 8 -30 15 -16 15 -19 2
-24 -11 -4 -13 -1 -9 11 7 18 5 17 -16 -10 -11 -15 -10 -17 8 -13 17 3 19 1
11 -20 -7 -19 -6 -23 4 -19 8 3 17 0 21 -5 3 -6 11 -8 17 -5 5 4 2 -5 -7 -20
-16 -24 -16 -27 0 -42 11 -12 13 -20 6 -27 -14 -14 -14 -27 0 -27 5 0 8 4 5 8
-3 5 1 9 8 9 14 0 15 -32 1 -44 -4 -5 -5 -2 0 6 5 10 4 12 -4 7 -17 -11 -3
-26 17 -19 12 4 14 3 7 -6 -14 -14 -7 -83 8 -74 6 4 8 0 4 -10 -3 -10 -3 -17
2 -17 4 0 13 -12 20 -27 l12 -28 -19 23 c-17 21 -18 22 -18 3 0 -11 4 -17 8
-15 8 5 18 -25 21 -63 0 -12 5 -20 9 -17 4 3 5 12 2 22 -5 14 -4 14 4 3 6 -8
8 -20 5 -28 -3 -8 3 -23 12 -33 10 -11 15 -21 12 -21 -4 -1 -11 -2 -16 -3 -5
0 -13 -5 -18 -10 -4 -5 -3 -6 4 -3 6 4 25 -4 41 -18 22 -18 29 -31 25 -48 -5
-21 -5 -21 9 -3 8 10 21 16 29 13 10 -4 9 -6 -4 -6 -10 -1 -16 -5 -13 -10 9
-13 47 -1 39 13 -3 6 0 6 8 -1 7 -7 21 -13 30 -13 9 0 22 -7 29 -15 9 -10 16
-12 25 -5 8 6 15 6 23 -2 9 -9 12 -9 12 -1 0 6 -6 14 -12 16 -10 4 -10 6 -1 6
6 1 15 -4 18 -9 4 -7 13 -7 25 0 16 8 18 7 14 -4 -6 -16 19 -17 33 -1 5 4 1 5
-7 0 -8 -5 -12 -4 -7 0 10 11 48 14 41 3 -3 -4 2 -8 11 -8 10 0 13 5 9 13 -5
8 -3 8 9 -2 9 -7 25 -11 36 -8 10 2 25 1 32 -4 8 -4 18 -1 26 9 11 15 12 15 7
1 -4 -13 0 -15 20 -12 17 4 26 1 26 -8 0 -10 3 -10 12 -1 7 7 17 12 23 12 5 0
3 -5 -5 -10 -12 -7 -10 -9 7 -7 12 0 20 4 18 7 -2 3 18 5 44 5 32 0 53 -6 65
-17 10 -10 23 -18 29 -18 7 0 6 4 -3 10 -11 7 -11 10 -2 10 7 0 10 5 6 11 -4
7 2 7 17 -1 31 -16 39 -25 16 -17 -11 4 -16 3 -12 -3 3 -6 15 -10 26 -10 14 0
18 4 13 13 -6 9 -4 9 8 -1 13 -10 18 -10 24 -1 5 8 3 9 -6 4 -9 -6 -11 -4 -5
5 6 10 12 8 24 -9 16 -20 17 -20 40 -4 14 9 22 12 18 6 -7 -12 72 -12 91 0 7
5 11 5 10 0 -3 -7 7 -15 15 -12 28 8 38 6 32 -9 -5 -14 -4 -15 6 -4 15 14 63
17 54 2 -3 -5 -13 -7 -23 -4 -14 5 -14 4 -3 -4 11 -8 23 -5 44 10 l29 21 -6
-24 c-3 -13 -3 -18 0 -11 3 6 11 9 16 6 6 -4 8 -2 5 3 -4 6 2 13 13 16 11 3
20 1 20 -5 0 -6 7 -7 16 -4 8 3 22 -1 31 -9 8 -8 18 -13 23 -10 5 3 11 -1 14
-7 4 -7 4 -3 2 9 -3 15 0 20 10 16 8 -3 12 -9 9 -13 -3 -5 0 -12 6 -16 8 -4 9
-3 5 4 -4 7 -3 12 3 12 5 0 13 -5 16 -11 10 -15 113 -4 126 14 3 5 9 1 12 -8
4 -9 3 -13 -3 -10 -6 3 -10 1 -10 -4 0 -18 18 -12 33 10 8 11 18 16 21 11 3
-6 0 -13 -6 -15 -7 -3 4 -5 25 -4 22 0 33 3 25 8 -6 4 -16 5 -22 2 -5 -4 -6
-1 0 8 13 21 15 47 4 54 -6 4 -7 12 -3 18 4 7 -1 6 -10 -2 -15 -12 -17 -12
-11 3 3 9 2 16 -4 16 -6 0 -13 -6 -15 -12 -4 -10 -6 -10 -6 -1 -1 6 4 15 9 18
15 9 -8 35 -24 29 -9 -4 -13 3 -11 20 2 15 -2 24 -8 23 -7 -1 -11 4 -9 11 1 8
-2 11 -7 8 -5 -3 -14 1 -21 9 -7 8 -17 12 -23 8 -5 -3 -8 -2 -5 3 9 15 -10 54
-26 54 -10 0 -13 6 -9 18 5 14 3 15 -8 4 -7 -6 -18 -12 -24 -12 -5 0 -3 5 5
10 13 8 13 10 -2 10 -9 0 -20 5 -24 11 -4 8 1 9 17 5 23 -7 23 -6 4 6 -11 7
-22 13 -25 14 -29 6 -39 17 -30 34 8 15 6 20 -10 25 -11 4 -17 11 -14 17 4 7
0 7 -13 0 -15 -9 -20 -8 -20 3 0 8 3 12 7 10 4 -2 7 2 7 9 0 8 -8 11 -20 8
-12 -3 -18 -1 -14 5 4 5 -5 16 -18 23 -13 7 -22 17 -19 22 3 5 12 1 21 -9 13
-17 13 -16 4 4 -7 13 -18 20 -29 18 -11 -2 -19 3 -19 10 0 7 8 12 19 10 10 -2
16 0 13 6 -4 5 -11 7 -16 4 -5 -4 -12 0 -15 9 -3 8 -12 12 -19 10 -16 -7 -39
32 -29 49 5 7 2 7 -9 -2 -15 -12 -17 -12 -11 3 4 10 -1 18 -14 23 -20 8 -22
11 -22 34 0 5 -4 8 -9 5 -5 -4 -17 -3 -25 0 -15 6 -15 9 0 33 17 26 17 26 -3
8 -11 -9 -24 -17 -29 -17 -5 0 -3 4 5 9 10 7 11 12 1 27 -10 16 -11 16 -6 2 8
-27 -2 -21 -18 10 -12 24 -12 30 1 47 13 16 15 17 10 3 -4 -10 -2 -18 3 -18 6
0 10 5 10 11 0 5 6 7 13 3 8 -6 8 -3 -1 9 -12 14 -11 16 7 12 19 -3 26 5 22
27 0 4 9 5 20 3 18 -4 19 -2 7 12 -12 15 -11 15 12 3 22 -12 23 -11 13 1 -12
15 -8 17 44 21 8 1 9 7 2 20 -5 10 -6 18 -2 17 22 -4 34 2 27 14 -5 8 -2 7 9
-2 15 -12 17 -12 11 4 -5 13 -4 16 4 11 7 -4 12 -3 12 1 0 5 9 14 19 20 17 10
18 9 15 -10 -4 -20 -3 -19 6 2 8 18 7 26 -2 32 -6 4 6 7 28 6 37 -2 39 -1 37
28 -2 25 0 27 8 13 5 -10 15 -18 22 -18 7 0 6 4 -3 10 -12 7 -12 10 -1 10 7 0
27 11 43 25 16 14 35 22 41 18 7 -4 5 2 -3 12 -9 11 -10 16 -2 11 6 -4 12 -2
12 3 0 6 6 10 13 8 7 -1 11 6 9 17 -3 18 -2 18 13 2 18 -18 30 -21 20 -6 -3 6
2 10 12 11 17 0 17 1 0 8 -18 7 -18 8 -1 21 11 9 15 10 10 3 -4 -7 -2 -13 3
-13 6 0 11 5 11 11 0 5 5 7 10 4 6 -3 10 1 10 9 0 9 5 16 11 16 5 0 7 -5 3
-12 -4 -7 -3 -8 5 -4 9 6 9 11 1 21 -7 9 -6 16 3 24 8 6 17 8 20 4 4 -3 7 0 7
7 0 9 5 7 14 -6 15 -19 15 -19 12 1 -4 27 4 40 15 24 7 -11 9 -10 9 3 0 9 5
20 12 24 8 5 9 1 4 -12 -5 -12 -4 -15 2 -9 6 6 12 19 14 29 3 19 4 19 21 2 18
-18 24 -8 7 12 -6 6 -7 10 -4 7 4 -2 13 2 20 10 8 8 21 12 29 9 17 -7 20 16 5
34 -7 9 -7 9 2 2 16 -13 38 -13 38 1 0 5 -5 7 -12 3 -7 -5 -8 -3 -4 5 5 7 14
10 22 7 8 -3 14 0 14 5 0 7 9 9 21 6 12 -3 18 -3 15 0 -10 11 15 43 33 43 22
0 48 26 31 32 -5 1 -1 9 11 16 12 8 18 9 15 4 -3 -6 1 -12 9 -16 8 -3 17 0 21
6 4 6 3 8 -4 4 -6 -4 -10 1 -9 13 0 11 4 18 8 15 4 -2 12 3 19 11 15 18 34 20
25 3 -4 -7 1 -4 9 6 9 11 16 25 16 30 0 6 5 4 10 -4 8 -12 10 -10 11 10 l1 25
8 -25 c7 -22 8 -22 10 -5 1 11 2 23 1 27 0 5 2 7 7 7 32 -5 53 3 50 19 -2 11
1 19 6 20 5 0 13 6 17 14 7 10 9 10 9 1 0 -7 10 -13 23 -12 21 0 21 1 2 9 -11
5 -14 9 -7 9 7 1 10 6 7 11 -4 6 -11 7 -17 4 -7 -4 -8 -2 -4 4 9 15 12 15 28
-1 10 -10 18 -8 38 12 14 13 19 21 13 17 -9 -5 -11 -2 -7 8 6 16 34 30 42 21
3 -3 0 -5 -6 -5 -7 0 -12 -8 -12 -17 0 -14 3 -13 16 5 8 12 12 28 8 35 -5 7 0
6 11 -3 15 -12 17 -12 10 -1 -6 11 -4 13 7 8 15 -5 74 44 64 54 -3 3 8 5 24 4
17 0 29 5 29 10 -1 6 -6 9 -12 7 -6 -2 -5 4 3 12 7 9 18 16 25 16 7 0 20 11
29 25 15 22 20 24 39 14 20 -11 21 -11 9 4 -12 14 -11 16 5 16 35 1 52 4 51
10 -2 12 15 41 24 41 5 0 6 -5 2 -12 -4 -7 -3 -8 5 -4 8 6 9 12 2 20 -14 16
-4 26 17 19 11 -5 13 -3 7 8 -4 8 -5 11 -1 7 11 -9 46 23 39 35 -3 6 -1 7 5 3
6 -4 8 -14 5 -24 -4 -13 -2 -13 10 3 9 11 17 29 17 40 0 12 3 16 8 9 12 -19
40 -13 34 8 -3 12 1 18 12 18 10 0 15 4 12 8 -2 4 4 9 15 9 27 2 50 23 42 37
-4 6 2 4 12 -4 11 -9 16 -10 11 -2 -4 7 -1 12 9 12 10 0 13 5 9 13 -5 8 -2 7
9 -2 10 -8 20 -11 24 -7 3 3 1 6 -6 6 -7 0 -10 4 -7 9 4 5 0 12 -6 15 -7 4 -3
4 10 2 17 -3 26 3 37 25 16 30 32 40 21 14 -3 -8 -1 -15 4 -15 6 0 10 4 10 9
0 5 15 16 33 25 17 8 25 16 16 16 -8 0 -20 -5 -27 -12 -6 -6 -15 -9 -18 -5 -4
3 6 11 22 18 63 25 74 33 75 53 1 17 2 18 6 4 2 -10 9 -18 14 -18 6 0 8 8 4
19 -4 15 -1 18 18 16 16 -2 23 2 23 14 -1 9 2 16 5 16 3 0 14 7 24 15 11 9 16
10 11 3 -4 -7 -2 -13 3 -13 11 0 14 11 12 40 0 10 1 11 5 3 8 -18 27 -16 21 1
-4 10 -1 13 7 10 8 -3 17 0 21 5 3 6 10 9 15 6 5 -3 16 5 24 17 12 17 13 24 3
30 -7 5 -8 8 -1 8 6 0 14 -3 18 -7 10 -11 37 -12 30 -2 -3 5 -9 7 -13 5 -4 -3
-8 0 -8 7 0 7 8 13 18 13 10 0 15 -5 13 -11 -3 -5 2 -1 10 9 9 11 16 25 15 30
0 6 -3 5 -6 -1 -2 -7 -9 -13 -15 -13 -6 0 -6 6 2 15 6 8 8 20 4 27 -5 10 -4
11 7 1 7 -7 18 -13 23 -13 6 0 4 5 -4 11 -11 8 -12 12 -2 16 6 2 12 9 12 14 0
6 -4 7 -10 4 -12 -8 -13 5 -1 24 6 9 6 22 -1 34 -7 14 -7 17 1 13 6 -4 11 -2
11 3 0 6 -6 11 -12 11 -9 0 -8 4 2 10 8 5 11 10 7 10 -4 0 -3 9 3 20 7 13 7
20 1 20 -6 0 -7 7 -4 17 5 12 3 14 -8 8 -11 -7 -12 -6 -2 6 11 14 13 19 13 40
0 5 4 7 10 4 6 -3 7 1 4 9 -3 9 -9 14 -13 11 -4 -2 -8 2 -8 9 0 8 7 12 15 8
11 -4 13 -2 6 9 -4 8 -10 22 -11 32 -3 17 -2 17 13 3 25 -26 27 -18 4 14 -24
33 -21 39 6 13 15 -16 17 -16 12 -2 -4 9 -1 22 5 28 8 8 8 11 0 11 -6 0 -14
-6 -17 -12 -4 -7 -4 -3 -2 9 2 12 -1 24 -8 27 -6 3 -1 3 11 0 18 -4 20 -1 16
16 -4 15 -8 18 -13 9 -5 -7 -7 -2 -7 14 1 14 5 23 10 20 8 -5 10 7 7 61 -1 29
2 37 12 31 8 -4 7 -1 -2 7 -8 7 -16 19 -17 26 -4 16 14 16 20 0 2 -7 4 2 4 20
0 21 -3 28 -9 20 -6 -10 -8 -8 -8 5 0 9 5 17 10 17 6 0 10 14 10 31 0 17 4 28
10 24 6 -3 10 -1 10 4 0 6 -4 11 -10 11 -5 0 -9 6 -7 13 1 6 -4 11 -12 9 -12
-3 -12 0 -1 12 14 18 25 22 15 6 -3 -6 1 -7 10 -3 13 4 14 8 4 14 -7 4 -14 15
-15 23 -1 9 2 14 7 10 5 -3 9 2 9 11 0 9 -4 14 -8 11 -5 -3 -9 1 -9 9 0 8 4
12 8 9 15 -9 16 22 0 40 -11 14 -12 17 -2 11 11 -6 13 -3 8 14 -4 17 -2 21 9
17 8 -3 13 -2 9 3 -3 5 1 12 7 15 7 3 3 3 -9 0 -15 -3 -21 -1 -19 10 1 9 6 19
11 23 4 4 5 2 1 -4 -5 -9 -2 -11 9 -6 12 4 13 8 5 13 -17 11 -22 60 -5 54 9
-4 11 3 7 22 -3 16 -1 25 5 21 6 -4 9 5 7 21 -1 15 -3 27 -4 27 -1 0 -3 8 -5
18 -2 9 1 17 7 17 6 0 7 -7 4 -16 -3 -8 -2 -12 4 -9 5 3 9 17 8 30 -2 17 -6
21 -14 14 -8 -7 -15 -6 -20 2 -5 8 -3 9 6 4 10 -6 12 -4 7 8 -4 11 -2 14 8 11
11 -5 12 0 6 23 -6 20 -4 32 5 41 8 7 14 18 14 25 0 7 -4 6 -10 -3 -8 -12 -10
-10 -10 8 0 13 4 21 8 18 4 -2 8 6 8 19 0 13 -3 22 -7 19 -4 -2 -11 0 -14 6
-4 6 -1 9 7 8 7 -2 14 8 16 22 2 14 8 30 13 37 7 7 6 14 -1 18 -14 9 -13 26 3
23 14 -3 11 45 -4 50 -5 2 1 13 13 24 13 11 18 17 12 14 -7 -3 -11 6 -12 25 0
20 3 27 11 23 8 -5 8 -3 0 7 -16 16 -17 33 -2 23 8 -5 8 -1 0 14 -14 27 -14
35 1 26 8 -5 9 -2 4 12 -13 32 -15 55 -5 49 5 -4 9 -2 9 4 0 5 -4 13 -10 16
-5 3 -10 12 -10 18 0 7 4 6 11 -3 9 -12 10 -10 6 8 -4 18 -2 22 9 18 12 -5 12
-2 3 15 -8 15 -8 19 0 15 6 -4 11 0 11 9 0 9 -4 14 -8 11 -5 -3 -9 1 -9 9 0 8
4 12 9 9 4 -3 8 -2 9 3 0 4 2 18 3 30 2 13 -2 20 -8 17 -6 -3 -2 2 8 10 12 10
15 16 7 16 -13 0 -12 22 4 65 6 16 5 17 -5 5 -9 -13 -11 -12 -7 5 2 11 8 19
15 18 6 -2 9 4 5 13 -4 11 -8 12 -13 4 -5 -9 -9 -9 -14 -1 -4 6 -1 14 7 17 15
5 19 34 5 34 -4 0 -8 5 -8 11 0 5 5 7 11 3 7 -4 7 1 -1 16 -8 15 -8 20 -1 16
15 -10 14 7 -1 23 -11 11 -9 12 8 3 19 -10 21 -9 19 11 -4 37 -5 38 -17 31 -7
-4 -8 -3 -4 5 4 6 12 8 18 5 7 -5 9 -2 6 8 -4 8 -2 21 2 29 6 8 4 16 -3 21 -8
5 -5 8 8 8 16 0 17 2 5 9 -8 6 -19 7 -25 3 -5 -3 -4 2 3 11 8 9 10 22 6 28 -4
7 -3 9 4 5 7 -4 9 10 7 44 -2 27 1 53 7 56 6 4 5 10 -3 15 -10 6 -7 9 11 10
14 0 19 3 13 6 -7 2 -13 9 -13 14 0 6 5 7 12 3 6 -4 8 -3 4 4 -3 6 -2 13 3 17
6 3 8 12 5 20 -4 8 -10 13 -14 10 -11 -7 -7 15 8 42 10 18 9 24 -5 32 -10 6
-12 11 -5 11 6 0 12 9 12 21 0 13 4 18 12 13 8 -5 8 -3 2 7 -5 8 -9 25 -10 39
0 14 -4 31 -8 38 -4 7 -2 12 4 12 6 0 8 5 5 10 -4 6 -3 10 2 9 19 -3 33 2 33
12 0 5 -4 8 -8 5 -4 -2 -14 -1 -22 5 -12 7 -11 9 5 9 17 0 17 2 5 10 -13 9
-13 10 0 10 9 0 11 3 5 8 -10 6 -11 18 -6 40 2 4 6 -2 10 -13 7 -15 9 -10 9
20 0 32 -2 36 -9 20 -9 -19 -9 -19 -5 2 2 12 -1 24 -8 27 -7 3 -7 5 2 5 6 1
12 8 12 16 0 8 5 15 11 15 5 0 7 -4 4 -10 -3 -6 1 -7 10 -4 13 5 13 8 2 18
-22 18 -29 46 -12 52 8 4 15 10 15 16 0 5 -4 6 -10 3 -5 -3 -10 -1 -10 4 0 6
4 11 9 11 5 0 11 9 14 20 3 11 1 18 -4 14 -10 -6 -12 9 -2 19 3 4 8 17 9 30 5
43 12 76 19 89 3 7 -1 4 -10 -7 -16 -21 -16 -20 -6 34 1 2 7 -1 14 -6 6 -6 20
-9 30 -8 10 2 14 -1 10 -8 -4 -6 0 -8 10 -4 9 3 17 1 19 -4 3 -9 23 -16 52
-18 5 -1 3 -7 -3 -15 -9 -11 -9 -16 0 -22 7 -4 9 -3 6 3 -4 6 0 13 8 17 8 3
17 0 21 -6 5 -7 2 -8 -6 -3 -9 6 -11 4 -6 -4 5 -7 14 -10 21 -7 7 2 21 -2 32
-10 10 -9 13 -13 7 -10 -6 3 -11 0 -11 -7 0 -7 8 -13 18 -13 10 0 15 5 11 11
-3 5 2 4 12 -4 13 -11 14 -16 4 -22 -9 -6 -9 -9 -1 -9 6 0 14 4 18 10 10 15
34 0 28 -18 -5 -13 -3 -14 7 -5 16 15 61 -4 53 -22 -2 -8 5 -19 17 -25 15 -8
20 -8 16 -1 -4 6 0 11 9 11 11 0 15 -5 12 -14 -6 -15 10 -25 53 -32 43 -8 52
-14 46 -30 -3 -8 -2 -12 4 -9 6 3 10 1 10 -6 0 -7 8 -5 20 6 18 17 20 17 14 2
-5 -13 -2 -16 12 -10 12 4 15 3 10 -5 -7 -12 5 -16 32 -13 11 2 11 -2 2 -20
l-12 -22 30 22 c28 20 30 20 25 2 -3 -13 2 -23 16 -31 12 -6 21 -7 20 -3 -3
20 2 27 12 13 9 -13 10 -13 6 1 -3 9 0 22 6 28 8 8 7 14 -2 24 -8 6 -11 7 -8
1 8 -13 -20 -54 -36 -54 -8 0 -7 4 2 9 23 15 23 72 -1 119 -12 23 -25 42 -30
42 -5 0 -6 -5 -2 -12 5 -7 3 -8 -5 -4 -9 6 -9 12 3 25 21 23 20 31 -3 31 -10
0 -22 7 -25 16 -8 21 -8 24 5 24 5 0 8 -4 4 -9 -3 -5 -1 -12 4 -15 8 -5 8 15
1 34 -1 3 -2 9 -1 14 1 5 -6 3 -15 -5 -16 -13 -16 -12 -6 8 17 31 15 38 -5 16
-10 -10 -15 -14 -10 -9 12 16 8 29 -7 23 -10 -4 -13 -1 -9 8 3 8 9 12 14 9 5
-3 6 2 3 10 -7 19 -20 21 -27 4 -4 -9 -6 -10 -6 -1 -1 6 7 20 17 29 16 17 16
18 0 11 -17 -6 -20 -3 -22 26 -1 6 -7 17 -15 23 -16 13 -27 59 -11 49 5 -3 10
-1 10 4 0 11 -15 15 -35 11 -5 -1 -1 7 8 18 12 13 15 22 7 27 -6 3 -9 1 -8 -6
2 -6 -3 -14 -11 -16 -10 -4 -11 0 -6 17 5 16 4 20 -5 15 -9 -5 -10 -2 -6 13 5
14 1 24 -10 30 -11 6 -15 17 -11 31 3 13 1 19 -5 15 -6 -4 -8 2 -3 17 3 13 3
19 -2 12 -6 -8 -13 -8 -26 2 -10 7 -14 16 -8 19 5 3 11 1 13 -6 3 -8 7 -6 11
5 3 9 3 16 -1 15 -15 -3 -42 15 -36 24 3 5 13 4 22 -4 15 -12 16 -11 4 4 -8 9
-21 14 -30 12 -15 -5 -15 -4 1 9 15 13 16 15 2 21 -8 3 -15 1 -15 -5 0 -6 -5
-7 -11 -3 -8 5 -6 10 5 16 14 8 15 13 5 24 -6 8 -8 14 -4 14 4 0 2 6 -4 13 -6
8 -7 18 -3 22 4 5 1 5 -6 1 -11 -6 -11 -11 0 -24 9 -12 6 -11 -10 2 -23 20
-30 32 -12 21 14 -9 12 9 -2 24 -11 10 -9 11 6 5 17 -7 17 -5 -3 15 -12 12
-19 26 -16 31 3 4 1 10 -5 12 -5 1 -10 17 -12 35 -1 17 -6 30 -10 27 -4 -3 -5
-12 -2 -22 4 -13 3 -14 -4 -4 -5 7 -7 24 -5 36 3 13 0 27 -6 30 -7 4 -9 1 -5
-7 3 -8 1 -18 -4 -21 -5 -3 -8 7 -6 22 4 37 -5 64 -19 55 -9 -5 -9 -3 -1 8 11
13 11 45 1 55 -2 3 -7 -2 -11 -11 -3 -9 -2 -13 4 -10 6 3 7 -1 4 -10 -7 -17
-14 -15 -18 7 -1 7 -9 27 -18 45 -13 25 -13 30 -2 26 10 -3 12 0 8 10 -3 10
-12 13 -22 10 -9 -4 -14 -3 -10 2 4 4 2 15 -5 23 -8 11 -8 13 0 9 8 -5 8 -1 0
17 -7 13 -16 21 -22 18 -5 -3 -1 7 9 23 16 25 17 28 3 16 -20 -16 -29 -10 -33
22 -4 33 -5 34 -15 12 -9 -19 -9 -18 -5 2 2 13 0 26 -5 29 -8 5 -13 -10 -10
-29 1 -5 -3 -6 -9 -2 -6 3 -7 12 -3 18 4 7 -2 5 -12 -3 -11 -9 -16 -10 -11 -2
4 7 2 12 -6 13 -7 0 -21 2 -31 4 -9 2 -15 -1 -11 -6 3 -5 9 -7 14 -4 5 3 11 2
14 -3 2 -4 -8 -8 -24 -7 -15 0 -27 2 -25 5 2 3 -5 7 -16 7 -10 1 -19 -3 -19
-8 0 -6 5 -7 12 -3 7 5 8 3 4 -5 -6 -10 -12 -9 -24 2 -10 8 -24 17 -32 21 -8
4 -7 1 4 -8z m-164 -32 c0 -8 -19 -13 -24 -6 -3 5 1 9 9 9 8 0 15 -2 15 -3z
m-663 -69 c0 -8 -4 -12 -9 -9 -5 3 -6 10 -3 15 9 13 12 11 12 -6z m34 -8 c-10
-9 -11 -8 -5 6 3 10 9 15 12 12 3 -3 0 -11 -7 -18z m-886 -77 c-3 -5 -12 -10
-18 -10 -7 0 -6 4 3 10 19 12 23 12 15 0z m-1450 -808 c-3 -3 -11 0 -18 7 -9
10 -8 11 6 5 10 -3 15 -9 12 -12z m3205 -102 c0 -5 -2 -10 -4 -10 -3 0 -8 5
-11 10 -3 6 -1 10 4 10 6 0 11 -4 11 -10z m-3420 -40 c0 -5 -5 -10 -11 -10 -5
0 -7 5 -4 10 3 6 8 10 11 10 2 0 4 -4 4 -10z m3800 -80 c0 -5 -5 -10 -11 -10
-5 0 -7 5 -4 10 3 6 8 10 11 10 2 0 4 -4 4 -10z m-3936 -8 c3 -5 -1 -9 -9 -9
-8 0 -12 4 -9 9 3 4 7 8 9 8 2 0 6 -4 9 -8z m-156 -117 c-3 -3 -9 2 -12 12 -6
14 -5 15 5 6 7 -7 10 -15 7 -18z m-48 -25 c0 -5 -8 -10 -17 -10 -15 0 -16 2
-3 10 19 12 20 12 20 0z m-254 -182 c4 -7 3 -8 -4 -4 -7 4 -12 2 -12 -5 0 -7
-3 -10 -6 -6 -6 5 3 27 11 27 2 0 7 -5 11 -12z m-129 -93 c0 -8 -4 -12 -9 -9
-4 3 -8 9 -8 15 0 5 4 9 8 9 5 0 9 -7 9 -15z m4073 -120 c0 -2 -10 -10 -22
-16 -21 -11 -22 -11 -9 4 13 16 31 23 31 12z m-4495 -173 c-3 -3 -11 0 -18 7
-9 10 -8 11 6 5 10 -3 15 -9 12 -12z m78 -37 c-3 -9 -8 -14 -10 -11 -3 3 -2 9
2 15 9 16 15 13 8 -4z m-28 -4 c3 -5 2 -12 -3 -15 -5 -3 -9 1 -9 9 0 17 3 19
12 6z m165 -25 c0 -11 -19 -15 -25 -6 -3 5 1 10 9 10 9 0 16 -2 16 -4z m-315
-354 c-3 -3 -11 0 -18 7 -9 10 -8 11 6 5 10 -3 15 -9 12 -12z m4505 -42 c0 -5
-2 -10 -4 -10 -3 0 -8 5 -11 10 -3 6 -1 10 4 10 6 0 11 -4 11 -10z m-4770
-174 c0 -2 -7 -9 -15 -16 -13 -11 -14 -10 -9 4 5 14 24 23 24 12z m-206 -168
c-3 -4 -9 -8 -15 -8 -5 0 -9 4 -9 8 0 5 7 9 15 9 8 0 12 -4 9 -9z m-852 -695
c-6 -2 -10 -8 -8 -12 3 -4 -1 -8 -9 -8 -8 0 -15 4 -15 8 0 8 19 17 35 17 6 0
4 -2 -3 -5z m-85 -79 c-3 -3 -12 -4 -19 -1 -8 3 -5 6 6 6 11 1 17 -2 13 -5z
m-20 -20 c-3 -3 -12 -4 -19 -1 -8 3 -5 6 6 6 11 1 17 -2 13 -5z m-257 -198 c0
-2 -8 -10 -17 -17 -16 -13 -17 -12 -4 4 13 16 21 21 21 13z m-70 -56 c0 -5 -5
-10 -11 -10 -5 0 -7 5 -4 10 3 6 8 10 11 10 2 0 4 -4 4 -10z m-13 -26 c-3 -3
-12 -4 -19 -1 -8 3 -5 6 6 6 11 1 17 -2 13 -5z m-461 -363 c-4 -5 0 -11 6 -14
7 -3 3 -4 -9 -4 -17 1 -19 4 -11 14 12 15 22 18 14 4z m-195 -194 c-10 -9 -11
-8 -5 6 3 10 9 15 12 12 3 -3 0 -11 -7 -18z m6613 -43 c3 -8 2 -12 -4 -9 -6 3
-10 10 -10 16 0 14 7 11 14 -7z m-6594 -24 c0 -5 -2 -10 -4 -10 -3 0 -8 5 -11
10 -3 6 -1 10 4 10 6 0 11 -4 11 -10z m30 -124 c0 -3 -4 -8 -10 -11 -5 -3 -10
-1 -10 4 0 6 5 11 10 11 6 0 10 -2 10 -4z m6340 -16 c0 -5 -8 -10 -17 -10 -15
0 -16 2 -3 10 19 12 20 12 20 0z m-6330 -40 c0 -5 -2 -10 -4 -10 -3 0 -8 5
-11 10 -3 6 -1 10 4 10 6 0 11 -4 11 -10z m6210 -40 c0 -5 -5 -10 -11 -10 -5
0 -7 5 -4 10 3 6 8 10 11 10 2 0 4 -4 4 -10z m-345 -270 c-3 -5 -15 -15 -25
-20 -16 -8 -18 -8 -14 5 3 8 10 12 15 9 5 -3 9 0 9 5 0 6 5 11 11 11 5 0 7 -4
4 -10z m-242 -181 c-8 -8 -13 -7 -18 2 -5 8 -4 10 3 5 7 -4 12 -2 12 5 0 7 3
9 7 6 4 -4 2 -12 -4 -18z m-113 -71 c0 -4 -4 -8 -9 -8 -6 0 -12 4 -15 8 -3 5
1 9 9 9 8 0 15 -4 15 -9z m-5835 -118 c3 -6 -1 -7 -9 -4 -18 7 -21 14 -7 14 6
0 13 -4 16 -10z m2635 -324 c0 -11 -19 -15 -25 -6 -3 5 1 10 9 10 9 0 16 -2
16 -4z m-138 -48 c-7 -7 -16 -6 -29 2 -16 10 -16 11 0 6 9 -3 17 -1 17 5 0 6
5 7 11 3 7 -4 7 -10 1 -16z m2478 -148 c0 -5 -8 -10 -17 -10 -15 0 -16 2 -3
10 19 12 20 12 20 0z m-5770 -14 c0 -2 -8 -10 -17 -17 -16 -13 -17 -12 -4 4
13 16 21 21 21 13z m1485 -175 c-3 -6 -11 -8 -17 -5 -6 4 -5 9 3 15 16 10 23
4 14 -10z m-1788 -46 c0 -8 -4 -12 -9 -9 -5 3 -6 10 -3 15 9 13 12 11 12 -6z
m-27 -15 c0 -5 -5 -10 -11 -10 -5 0 -7 5 -4 10 3 6 8 10 11 10 2 0 4 -4 4 -10z
m-40 -35 c-7 -8 -20 -15 -29 -15 -11 0 -8 5 9 14 33 19 35 19 20 1z m1580 -55
c0 -5 -5 -10 -11 -10 -5 0 -7 5 -4 10 3 6 8 10 11 10 2 0 4 -4 4 -10z m-480
-145 c0 -2 -9 -3 -19 -2 -11 0 -18 5 -15 9 4 6 34 0 34 -7z m-220 -15 c0 -5
-5 -10 -11 -10 -5 0 -7 5 -4 10 3 6 8 10 11 10 2 0 4 -4 4 -10z m5062 -17 c-6
-2 -9 -10 -6 -15 4 -7 2 -8 -5 -4 -13 9 -5 26 12 25 9 0 8 -2 -1 -6z m-6315
-35 c-3 -8 -6 -5 -6 6 -1 11 2 17 5 13 3 -3 4 -12 1 -19z m833 -13 c0 -2 -9
-3 -19 -2 -11 0 -18 5 -15 9 4 6 34 0 34 -7z m-871 -9 c9 -11 9 -16 -1 -22 -7
-4 -10 -4 -6 1 4 4 3 14 -3 22 -6 7 -9 13 -6 13 2 0 10 -6 16 -14z m711 -4 c0
-4 -10 -9 -22 -9 -18 -2 -20 0 -8 7 18 12 30 13 30 2z m-96 -14 c-3 -4 -11 -5
-19 -1 -21 7 -19 12 4 10 11 0 18 -5 15 -9z m-129 -8 c-3 -5 -12 -10 -18 -10
-7 0 -6 4 3 10 19 12 23 12 15 0z m-305 -42 c0 -4 -6 -8 -14 -8 -8 0 -17 4
-20 8 -2 4 4 8 15 8 10 0 19 -4 19 -8z m6421 -171 c-10 -9 -11 -8 -5 6 3 10 9
15 12 12 3 -3 0 -11 -7 -18z m69 -62 c13 -14 21 -25 17 -25 -3 0 -17 11 -31
25 -14 14 -22 25 -17 25 4 0 18 -11 31 -25z m57 -61 c-3 -3 -12 -4 -19 -1 -8
3 -5 6 6 6 11 1 17 -2 13 -5z m-1274 -35 c-8 -8 -13 -7 -18 2 -5 8 -4 10 3 5
7 -4 12 -2 12 5 0 7 3 9 7 6 4 -4 2 -12 -4 -18z m1317 -25 c0 -8 -19 -13 -24
-6 -3 5 1 9 9 9 8 0 15 -2 15 -3z m-124 -46 c2 -3 -14 -5 -37 -6 -22 -1 -38 2
-35 6 5 8 64 8 72 0z"/>
<path d="M9387 8836 c-4 -10 -1 -13 8 -9 8 3 12 9 9 14 -7 12 -11 11 -17 -5z"/>
<path d="M8875 8809 c-4 -6 -5 -12 -2 -15 2 -3 7 2 10 11 7 17 1 20 -8 4z"/>
<path d="M8597 8773 c-10 -9 -9 -23 1 -23 5 0 9 7 9 15 0 17 -1 18 -10 8z"/>
<path d="M8450 8760 c0 -5 5 -10 11 -10 5 0 7 5 4 10 -3 6 -8 10 -11 10 -2 0
-4 -4 -4 -10z"/>
<path d="M8130 8720 c0 -5 5 -10 11 -10 5 0 7 5 4 10 -3 6 -8 10 -11 10 -2 0
-4 -4 -4 -10z"/>
<path d="M7810 8680 c0 -5 5 -10 11 -10 5 0 7 5 4 10 -3 6 -8 10 -11 10 -2 0
-4 -4 -4 -10z"/>
<path d="M7846 8682 c-3 -5 1 -9 9 -9 8 0 12 4 9 9 -3 4 -7 8 -9 8 -2 0 -6 -4
-9 -8z"/>
<path d="M7495 8600 c-3 -5 -1 -10 4 -10 6 0 11 5 11 10 0 6 -2 10 -4 10 -3 0
-8 -4 -11 -10z"/>
<path d="M7470 8571 c0 -5 -10 -12 -22 -14 -22 -4 -22 -4 -2 -6 12 0 27 6 34
14 9 10 9 15 1 15 -6 0 -11 -4 -11 -9z"/>
<path d="M7350 8500 c0 -5 5 -10 11 -10 5 0 7 5 4 10 -3 6 -8 10 -11 10 -2 0
-4 -4 -4 -10z"/>
<path d="M7040 8269 c0 -5 -5 -7 -12 -3 -7 4 -8 3 -4 -5 6 -9 11 -9 22 0 17
14 18 19 4 19 -5 0 -10 -5 -10 -11z"/>
<path d="M6960 8224 c-17 -9 -20 -14 -9 -14 9 0 22 7 29 15 15 18 13 18 -20
-1z"/>
<path d="M6810 8109 c0 -5 5 -7 10 -4 6 3 10 8 10 11 0 2 -4 4 -10 4 -5 0 -10
-5 -10 -11z"/>
<path d="M6700 8040 c-8 -5 -12 -12 -9 -15 4 -3 12 1 19 10 14 17 11 19 -10 5z"/>
<path d="M10021 7644 c0 -11 3 -14 6 -6 3 7 2 16 -1 19 -3 4 -6 -2 -5 -13z"/>
<path d="M9632 7299 c0 -17 2 -28 6 -25 9 9 11 56 2 56 -4 0 -7 -14 -8 -31z"/>
<path d="M5550 7256 c0 -2 7 -7 16 -10 8 -3 12 -2 9 4 -6 10 -25 14 -25 6z"/>
<path d="M9630 7205 c0 -8 4 -15 8 -15 5 0 9 7 9 15 0 8 -4 15 -9 15 -4 0 -8
-7 -8 -15z"/>
<path d="M9590 6998 c0 -4 4 -8 9 -8 6 0 12 4 15 8 3 5 -1 9 -9 9 -8 0 -15 -4
-15 -9z"/>
<path d="M9593 6945 c0 -8 4 -15 9 -15 4 0 8 4 8 9 0 6 -4 12 -8 15 -5 3 -9
-1 -9 -9z"/>
<path d="M5072 6907 c14 -9 14 -13 -6 -29 -21 -19 -21 -19 6 -3 28 17 29 42 0
42 -15 0 -15 -1 0 -10z"/>
<path d="M9586 6892 c-3 -5 1 -9 9 -9 8 0 12 4 9 9 -3 4 -7 8 -9 8 -2 0 -6 -4
-9 -8z"/>
<path d="M4750 6320 c-13 -8 -12 -10 3 -10 9 0 17 5 17 10 0 12 -1 12 -20 0z"/>
<path d="M4470 6096 c0 -2 7 -7 16 -10 8 -3 12 -2 9 4 -6 10 -25 14 -25 6z"/>
<path d="M4075 5760 c-3 -5 -1 -10 4 -10 6 0 11 5 11 10 0 6 -2 10 -4 10 -3 0
-8 -4 -11 -10z"/>
<path d="M9430 5580 c0 -5 7 -7 15 -4 8 4 15 8 15 10 0 2 -7 4 -15 4 -8 0 -15
-4 -15 -10z"/>
<path d="M3415 5220 c-3 -5 -1 -10 4 -10 6 0 11 5 11 10 0 6 -2 10 -4 10 -3 0
-8 -4 -11 -10z"/>
<path d="M2875 4780 c-3 -5 -1 -10 4 -10 6 0 11 5 11 10 0 6 -2 10 -4 10 -3 0
-8 -4 -11 -10z"/>
<path d="M2817 4726 c-3 -8 0 -17 7 -19 10 -4 12 1 9 14 -6 23 -9 24 -16 5z"/>
<path d="M8718 4063 c7 -3 16 -2 19 1 4 3 -2 6 -13 5 -11 0 -14 -3 -6 -6z"/>
<path d="M2700 4060 c-8 -26 -7 -41 2 -32 6 6 8 16 5 24 -3 7 -6 11 -7 8z"/>
<path d="M8434 3865 c-3 -8 -4 -20 -1 -27 3 -7 6 -3 6 10 1 15 5 21 13 16 7
-4 8 -3 4 4 -10 16 -15 15 -22 -3z"/>
<path d="M2441 3684 c0 -11 3 -14 6 -6 3 7 2 16 -1 19 -3 4 -6 -2 -5 -13z"/>
<path d="M2413 3661 c-9 -15 -10 -22 -1 -27 6 -4 8 -3 4 4 -3 5 -1 12 5 14 7
2 10 9 8 16 -3 8 -9 5 -16 -7z"/>
<path d="M7925 3490 c-8 -13 9 -20 24 -11 10 6 9 10 -3 14 -8 3 -18 2 -21 -3z"/>
<path d="M5639 3403 c-13 -16 -12 -17 4 -4 9 7 17 15 17 17 0 8 -8 3 -21 -13z"/>
<path d="M5550 3406 c0 -2 7 -7 16 -10 8 -3 12 -2 9 4 -6 10 -25 14 -25 6z"/>
<path d="M5438 3363 c7 -3 16 -2 19 1 4 3 -2 6 -13 5 -11 0 -14 -3 -6 -6z"/>
<path d="M1828 3248 c-10 -10 -14 -18 -9 -18 10 0 36 29 30 34 -2 1 -12 -6
-21 -16z"/>
<path d="M1766 3203 c-6 -14 -5 -15 5 -6 7 7 10 15 7 18 -3 3 -9 -2 -12 -12z"/>
<path d="M4874 3204 c-18 -14 -18 -15 4 -4 12 6 22 13 22 15 0 8 -5 6 -26 -11z"/>
<path d="M7515 3200 c-2 -3 5 -7 16 -7 10 -1 19 2 19 6 0 9 -29 10 -35 1z"/>
<path d="M4565 3110 c-3 -5 -1 -10 4 -10 6 0 11 5 11 10 0 6 -2 10 -4 10 -3 0
-8 -4 -11 -10z"/>
<path d="M1372 2941 c-11 -7 -11 -9 0 -14 9 -3 15 1 15 9 0 8 -1 14 -1 14 -1
0 -7 -4 -14 -9z"/>
<path d="M4015 2940 c3 -5 8 -10 11 -10 2 0 4 5 4 10 0 6 -5 10 -11 10 -5 0
-7 -4 -4 -10z"/>
<path d="M2896 2793 c-6 -14 -5 -15 5 -6 7 7 10 15 7 18 -3 3 -9 -2 -12 -12z"/>
<path d="M7010 2795 c0 -8 2 -15 4 -15 2 0 6 7 10 15 3 8 1 15 -4 15 -6 0 -10
-7 -10 -15z"/>
<path d="M6995 2679 c-4 -6 -5 -12 -2 -15 2 -3 7 2 10 11 7 17 1 20 -8 4z"/>
<path d="M963 2643 c0 -9 4 -10 14 -2 7 6 13 12 13 14 0 1 -6 2 -13 2 -8 0
-14 -6 -14 -14z"/>
<path d="M5883 2595 c0 -8 4 -12 9 -9 5 3 6 10 3 15 -9 13 -12 11 -12 -6z"/>
<path d="M1690 2479 c0 -5 5 -7 10 -4 6 3 10 8 10 11 0 2 -4 4 -10 4 -5 0 -10
-5 -10 -11z"/>
<path d="M1300 2423 c0 -5 11 -8 24 -8 13 0 22 3 19 8 -2 4 -13 7 -24 7 -10 0
-19 -3 -19 -7z"/>
<path d="M7276 2338 c3 -5 10 -6 15 -3 13 9 11 12 -6 12 -8 0 -12 -4 -9 -9z"/>
<path d="M5990 2186 c0 -2 7 -7 16 -10 8 -3 12 -2 9 4 -6 10 -25 14 -25 6z"/>
<path d="M6018 2133 c6 -2 10 -8 7 -13 -3 -4 5 -10 16 -13 20 -5 20 -5 3 14
-9 10 -22 19 -28 18 -6 0 -6 -3 2 -6z"/>
<path d="M6120 2070 c-12 -7 -10 -9 7 -7 12 0 19 5 17 9 -6 10 -6 10 -24 -2z"/>
<path d="M6599 2033 c-12 -16 -12 -17 2 -6 9 7 19 10 22 6 4 -3 7 -1 7 5 0 17
-16 15 -31 -5z"/>
<path d="M6657 2036 c-4 -10 -1 -13 9 -9 7 3 14 9 14 14 0 14 -17 10 -23 -5z"/>
<path d="M7549 2043 c0 -5 -2 -15 -4 -23 -2 -10 5 -16 19 -17 18 -2 19 -1 4 8
-10 5 -15 16 -12 24 4 8 3 15 0 15 -3 0 -6 -3 -7 -7z"/>
<path d="M7170 2002 c0 -5 7 -9 15 -9 8 0 12 4 9 9 -3 4 -9 8 -15 8 -5 0 -9
-4 -9 -8z"/>
</g>
</svg>
